<svg width="59" height="58" viewBox="0 0 59 58" fill="none" xmlns="http://www.w3.org/2000/svg">
<path d="M18.6201 26.842V22.9632C18.6201 22.7337 18.6201 22.6418 18.9197 22.6418C21.4887 22.6418 23.5767 22.4896 24.6134 23.101C25.6526 23.71 25.6961 24.551 25.713 24.8023C25.7299 25.0537 25.7227 25.4137 25.2393 26.291C24.756 27.1682 22.5931 27.1852 21.0319 27.1852H18.9657C18.7119 27.1852 18.6201 27.0933 18.6201 26.842ZM25.7396 30.9068C25.9789 31.2124 26.1498 31.5658 26.2405 31.9432C26.3313 32.3205 26.3398 32.713 26.2655 33.0939C26.1913 33.4749 26.036 33.8354 25.8101 34.1511C25.5843 34.4667 25.2932 34.7301 24.9566 34.9233C24.4622 35.1314 23.9318 35.2405 23.3954 35.2447H18.9415C18.7119 35.2447 18.6201 35.2447 18.6201 34.9475V30.3558C18.6201 30.1262 18.6201 30.0344 18.9197 30.0344H21.8802C23.7168 30.0344 24.8647 29.8749 25.7396 30.9068Z" fill="white"/>
<path d="M41.9047 28.7804C41.7815 28.4901 41.5947 28.2311 41.3579 28.0228C41.1211 27.8145 40.8405 27.6621 40.5368 27.5769C39.9298 27.4111 39.2946 27.3759 38.673 27.4738C38.0515 27.5717 37.4578 27.8004 36.9312 28.1448C36.4063 28.6751 36.0672 29.361 35.9645 30.0999C35.9645 30.3585 35.9645 30.4068 36.2714 30.4068H41.9989C42.2817 30.4068 42.2817 30.4068 42.2575 30.0516C42.2304 29.6075 42.1117 29.1742 41.9047 28.7804ZM41.9047 28.7804C41.7815 28.4901 41.5922 28.2311 41.3555 28.0228C41.1187 27.8145 40.8405 27.6621 40.5368 27.5769C39.9298 27.4111 39.2946 27.3759 38.673 27.4738C38.0515 27.5717 37.4578 27.8004 36.9312 28.1448C36.4063 28.6751 36.0648 29.361 35.9621 30.0999C35.9621 30.3585 35.9621 30.4068 36.269 30.4068H41.9989C42.2817 30.4068 42.2817 30.4068 42.2575 30.0516C42.2304 29.6075 42.1069 29.1742 41.8998 28.7804M44.5896 6.04199H16.3146C13.8149 6.04199 11.4176 7.03498 9.65009 8.80251C7.88256 10.57 6.88957 12.9673 6.88957 15.467V43.742C6.88957 46.2417 7.88256 48.6389 9.65009 50.4065C11.4176 52.174 13.8149 53.167 16.3146 53.167H44.5896C47.0892 53.167 49.4865 52.174 51.2541 50.4065C53.0216 48.6389 54.0146 46.2417 54.0146 43.742V15.467C54.0146 12.9673 53.0216 10.57 51.2541 8.80251C49.4865 7.03498 47.0892 6.04199 44.5896 6.04199ZM35.3531 21.0495C35.3531 20.8634 35.3531 20.7909 35.5657 20.7909H43.2V22.7726C43.2 22.7726 43.2072 22.9127 43.0816 22.9127H35.6842C35.3531 22.9127 35.3531 22.9127 35.3531 22.5841V21.0495ZM28.2843 38.3697C25.3843 39.9478 20.5099 39.3122 14.7365 39.3122V19.7783H23.9488C26.3051 19.7783 29.1084 20.368 29.8624 22.8644C30.2539 23.9548 30.2301 25.1511 29.7955 26.225C29.3608 27.2989 28.5458 28.1751 27.5062 28.6862C28.4645 29.0408 29.3012 29.6626 29.9172 30.4779C30.5332 31.2932 30.9027 32.2679 30.982 33.2867C31.0613 34.3054 30.8471 35.3256 30.3648 36.2264C29.8824 37.1273 29.152 37.871 28.2602 38.3697H28.2843ZM45.839 32.809H36.414C36.1554 32.809 35.9186 32.9492 35.9645 33.2802C36.2472 34.6698 36.8828 36.1319 38.3232 36.3446C39.0837 36.5709 39.8981 36.5361 40.6366 36.2457C41.375 35.9553 41.995 35.4261 42.3977 34.7423C42.3977 34.7423 42.5161 34.5997 42.5862 34.5997H45.6505C45.6505 34.5997 45.839 34.5997 45.7907 34.7641C45.4675 35.6792 44.9893 36.5318 44.3769 37.2847C43.5579 38.067 42.5696 38.65 41.4888 38.9885C40.408 39.3271 39.2637 39.412 38.1448 39.2367C37.0259 39.0614 35.9624 38.6306 35.0369 37.9777C34.1114 37.3248 33.3488 36.4675 32.8083 35.4722C32.4759 34.8084 32.2686 34.0892 32.1969 33.3503C31.7766 31.4933 32.0979 29.5456 33.0923 27.922C34.0867 26.2983 35.6757 25.1271 37.5208 24.6576C42.8689 23.5024 46.2619 27.1782 46.2619 32.3619C46.2698 32.4225 46.2637 32.4841 46.2441 32.5419C46.2244 32.5998 46.1917 32.6524 46.1485 32.6956C46.1053 32.7388 46.0527 32.7715 45.9949 32.7911C45.937 32.8108 45.8754 32.8169 45.8148 32.809H45.839ZM40.561 27.5769C39.9546 27.4087 39.3189 27.3741 38.6977 27.4754C38.0767 27.5721 37.5208 27.6905 36.9553 28.1448C36.3898 28.5967 36.0902 29.3604 35.9887 30.0999C35.9887 30.3585 35.9887 30.4068 36.2956 30.4068H41.9989C42.2817 30.4068 42.2817 30.4068 42.2575 30.0516C42.2304 29.6075 42.1117 29.1742 41.9047 28.7804C41.7815 28.4901 41.5947 28.2311 41.3579 28.0228C41.1211 27.8145 40.8405 27.6621 40.5368 27.5769H40.561Z" fill="white"/>
</svg>
