<?xml version="1.0" encoding="utf-8"?>
<!-- Generator: Adobe Illustrator 24.1.1, SVG Export Plug-In . SVG Version: 6.00 Build 0)  -->
<svg version="1.1" id="Capa_1" xmlns="http://www.w3.org/2000/svg" xmlns:xlink="http://www.w3.org/1999/xlink" x="0px" y="0px"
	 viewBox="0 0 138.6 153.2" style="enable-background:new 0 0 138.6 153.2;" xml:space="preserve">
<style type="text/css">
	.st0{fill:#D276A8;}
	.st1{fill:#190071;}
</style>
<g id="object">
	<path class="st0" d="M99.1,33.4c-1.5,0-2.9,0.1-4.4,0.3C94.3,22,92.8,14.5,89.8,9.4C85.1,1.1,77.3,0,71,0S56.7,0.9,51,8
		c-4.3,5.4-6.6,13.6-7.1,25.7c-1.5-0.2-2.9-0.3-4.4-0.3C17.7,33.4,0,51.7,0,74.3c0,1.3,0.1,2.6,0.2,3.9c0.2,4.2,3.9,40.5,66.3,74.3
		c2.1,1.1,4.5,1.1,6.6,0c61.9-33.6,65.3-69.7,65.4-74.3c0.1-1.3,0.2-2.6,0.2-3.8C138.6,51.8,120.9,33.4,99.1,33.4z"/>
	<path class="st1" d="M60.2,15.4c1.7-2.1,4.2-3.6,10.8-3.6c6.1,0,7.5,1.5,8.6,3.4c2,3.6,3.2,10.7,3.4,21.8c-5.2,2.4-9.9,6-13.6,10.4
		c-3.7-4.4-8.4-8-13.6-10.4C55.9,26.3,57.3,19,60.2,15.4z"/>
	<path class="st1" d="M124.7,77c0,0.2,0,0.4,0,0.6c0,0.7-0.5,8.3-7.4,19.3c-6.4,10.4-19.9,25.9-47.6,41.5
		c-27.7-15.6-41.4-31.1-48-41.5c-7-11-7.7-18.7-7.7-19.4c0-0.2,0-0.3,0-0.5c-0.1-0.9-0.1-1.9-0.1-2.8c0-14.9,11.5-27,25.7-27
		c10.3,0.1,19.5,6.4,23.4,15.9c1.1,2.5,3.6,4.2,6.4,4.2l0,0c2.8,0,5.2-1.6,6.3-4.2c3.9-9.5,13.2-15.7,23.4-15.9
		c14.2,0,25.7,12.1,25.7,27C124.9,75.2,124.8,76.1,124.7,77z"/>
	<path class="st0" d="M69.3,72.4c-9.4,0-17,7.7-16.9,17.1c0,4.2,1.6,8.3,4.5,11.4v12.3c0.3,6.9,6.1,12.3,13,12
		c6.5-0.3,11.7-5.5,12-12v-12.3c6.3-6.9,5.9-17.7-1.1-24C77.7,74,73.6,72.4,69.3,72.4L69.3,72.4z"/>
	<path class="st1" d="M73.8,94.9c-1.2,0.9-1.8,2.3-1.8,3.8v14.4c0,1.5-1.2,2.6-2.6,2.6c-1.5,0-2.6-1.2-2.6-2.6V98.7
		c0-1.5-0.7-2.9-1.8-3.8c-3.1-2.5-3.5-7-1.1-10c2.5-3.1,7-3.5,10-1.1s3.5,7,1.1,10C74.5,94.2,74.2,94.6,73.8,94.9L73.8,94.9z"/>
	
		<rect x="178.5" y="78.7" transform="matrix(0.6271 -0.7789 0.7789 0.6271 -0.7322 209.354)" class="st0" width="79.6" height="53.5"/>
</g>
</svg>
