<svg xmlns="http://www.w3.org/2000/svg" viewBox="0 0 138.87 153.47"><defs><style>.cls-1{fill:#f0a;stroke:#fff;stroke-miterlimit:10;stroke-width:0.25px;}.cls-2{fill:#fff;}.cls-3{fill:#190071;}</style></defs><g id="object"><path class="cls-1" d="M390.24,433.44a37.8,37.8,0,0,0-4.4.25c-.42-11.73-1.94-19.21-4.86-24.31-4.74-8.31-12.56-9.38-18.84-9.38s-14.32.91-20,8c-4.32,5.4-6.6,13.63-7.07,25.68a37.58,37.58,0,0,0-4.38-.25c-21.8,0-39.53,18.31-39.53,40.83,0,1.26.06,2.56.17,3.86.22,4.16,3.94,40.49,66.25,74.25a6.86,6.86,0,0,0,6.58,0c61.93-33.56,65.28-69.7,65.45-74.31.12-1.28.17-2.56.17-3.8C429.77,451.75,412,433.44,390.24,433.44Z" transform="translate(-291.02 -399.87)"/><path class="cls-2" d="M351.38,415.42c1.72-2.15,4.2-3.57,10.76-3.57,6.12,0,7.45,1.47,8.56,3.4,2.05,3.6,3.16,10.74,3.37,21.77a39.85,39.85,0,0,0-13.61,10.4A39.74,39.74,0,0,0,346.82,437C347,426.29,348.49,419,351.38,415.42Z" transform="translate(-291.02 -399.87)"/><path class="cls-2" d="M415.82,477a3.44,3.44,0,0,0,0,.63c0,.66-.54,8.3-7.37,19.3-6.44,10.4-19.89,25.87-47.56,41.47-27.73-15.62-41.39-31.12-48-41.55-7-11.05-7.69-18.73-7.73-19.37a3.8,3.8,0,0,0,0-.46c-.09-.94-.13-1.86-.13-2.76,0-14.89,11.53-27,25.71-27a25.75,25.75,0,0,1,23.43,15.89,6.91,6.91,0,0,0,6.35,4.17h0a6.9,6.9,0,0,0,6.34-4.17,25.77,25.77,0,0,1,23.44-15.89c14.18,0,25.71,12.12,25.71,27C416,475.16,415.91,476.08,415.82,477Z" transform="translate(-291.02 -399.87)"/><path class="cls-1" d="M360.46,472.38A17,17,0,0,0,348,500.86v12.26a12.51,12.51,0,0,0,25,0V500.86a17,17,0,0,0-12.51-28.48Z" transform="translate(-291.02 -399.87)"/><path class="cls-3" d="M364.93,494.9a4.94,4.94,0,0,0-1.83,3.84v14.38a2.64,2.64,0,0,1-5.28,0V498.74A4.94,4.94,0,0,0,356,494.9a7.12,7.12,0,1,1,8.94,0Z" transform="translate(-291.02 -399.87)"/></g></svg>