<?xml version="1.0" encoding="utf-8"?>
<!-- Generator: Adobe Illustrator 24.1.1, SVG Export Plug-In . SVG Version: 6.00 Build 0)  -->
<svg version="1.1" id="Capa_1" xmlns="http://www.w3.org/2000/svg" xmlns:xlink="http://www.w3.org/1999/xlink" x="0px" y="0px"
	 viewBox="0 0 138.6 153.2" style="enable-background:new 0 0 138.6 153.2;" xml:space="preserve">
<style type="text/css">
	.st0{fill:#D276A8;}
	.st1{fill:#190071;}
	.st2{fill:#FEFEFE;}
	.st3{fill:#7D7D7D;}
	.st4{fill:#696969;}
	.st5{fill:#494949;}
	.st6{fill:#595959;}
</style>
<g id="object">
	<path class="st0" d="M-237.4-153.6c-1.5,0-2.9,0.1-4.4,0.3c-0.4-11.7-1.9-19.2-4.9-24.3c-4.7-8.3-12.6-9.4-18.8-9.4s-14.3,0.9-20,8
		c-4.3,5.4-6.6,13.6-7.1,25.7c-1.5-0.2-2.9-0.3-4.4-0.3c-21.8,0-39.5,18.3-39.5,40.8c0,1.3,0.1,2.6,0.2,3.9
		c0.2,4.2,3.9,40.5,66.3,74.3c2.1,1.1,4.5,1.1,6.6,0c61.9-33.6,65.3-69.7,65.4-74.3c0.1-1.3,0.2-2.6,0.2-3.8
		C-197.9-135.3-215.7-153.6-237.4-153.6z"/>
	<path class="st1" d="M-276.3-171.7c1.7-2.1,4.2-3.6,10.8-3.6c6.1,0,7.5,1.5,8.6,3.4c2,3.6,3.2,10.7,3.4,21.8
		c-5.2,2.4-9.9,6-13.6,10.4c-3.7-4.4-8.4-8-13.6-10.4C-280.7-160.8-279.2-168.1-276.3-171.7z"/>
	<path class="st1" d="M-211.9-110.1c0,0.2,0,0.4,0,0.6c0,0.7-0.5,8.3-7.4,19.3c-6.4,10.4-19.9,25.9-47.6,41.5
		c-27.7-15.6-41.4-31.1-48-41.5c-7-11-7.7-18.7-7.7-19.4c0-0.2,0-0.3,0-0.5c-0.1-0.9-0.1-1.9-0.1-2.8c0-14.9,11.5-27,25.7-27
		c10.3,0.1,19.5,6.4,23.4,15.9c1.1,2.5,3.6,4.2,6.4,4.2l0,0c2.8,0,5.2-1.6,6.3-4.2c3.9-9.5,13.2-15.7,23.4-15.9
		c14.2,0,25.7,12.1,25.7,27C-211.7-111.9-211.8-111-211.9-110.1z"/>
	<path class="st0" d="M-267.2-114.7c-9.4,0-17,7.7-16.9,17.1c0,4.2,1.6,8.3,4.5,11.4V-74c0.3,6.9,6.1,12.3,13,12
		c6.5-0.3,11.7-5.5,12-12v-12.3c6.3-6.9,5.9-17.7-1.1-24C-258.9-113.1-263-114.7-267.2-114.7L-267.2-114.7z"/>
	<path class="st1" d="M-262.8-92.2c-1.2,0.9-1.8,2.3-1.8,3.8V-74c0,1.5-1.2,2.6-2.6,2.6c-1.5,0-2.6-1.2-2.6-2.6v-14.4
		c0-1.5-0.7-2.9-1.8-3.8c-3.1-2.5-3.5-7-1.1-10c2.5-3.1,7-3.5,10-1.1s3.5,7,1.1,10C-262-92.8-262.4-92.5-262.8-92.2L-262.8-92.2z"/>
	
		<rect x="-158" y="-108.4" transform="matrix(0.6271 -0.7789 0.7789 0.6271 19.4999 -122.5239)" class="st0" width="79.6" height="53.5"/>
</g>
<path class="st2" d="M125.3,114c0,5.9,0,11.8,0,17.7c0,0.7-0.1,0.9-0.9,0.9c-29.4,0-58.8,0-88.2,0c-7.3,0-14.6,0-21.9,0
	c-0.7,0-0.9,0-0.9-0.9c0-36.8,0-73.5,0-110.3c0-0.7,0.1-0.8,0.8-0.8c36.8,0,73.5,0,110.3,0c0.8,0,0.9,0.2,0.9,0.9
	c0,28.8,0,57.6,0,86.4c-0.6-0.1-0.5-0.6-0.5-1c-0.4-4.1-1-8.2-2.1-12.1c-2.2-7.9-5.9-14.9-11.8-20.6c-4.7-4.5-10.2-7.7-16.2-10
	c-5.6-2.1-11.4-3.2-17.3-3.8c-3.4-0.3-6.7-0.5-10.1-0.1c-0.7,0.1-1.1-0.3-1.1-1c0-0.4,0-0.7,0-1.1c0-5.8,0-11.6,0-17.5
	c0-1.1,0-2.3-1.2-3c-1.3-0.7-2.2,0.2-3,0.9C50,47.8,38.1,56.9,26.2,66.1c-3.6,2.8-7.3,5.6-10.9,8.4c-1.9,1.4-1.9,2.7,0,4.2
	c10.1,7.7,20.1,15.4,30.2,23.2c5.4,4.2,10.8,8.3,16.3,12.5c0.4,0.3,0.7,0.6,1.2,0.8c1.4,0.7,2.7,0.1,3-1.4c0.1-0.5,0.1-1,0.1-1.5
	c0-5.5,0-11.1,0-16.6c0-1.8,0.1-1.9,1.9-1.9c10.6,0.4,21,1.7,31,5.2c5.8,2.1,11.3,4.8,16.1,8.8c2.2,1.8,4.3,3.9,5.8,6.3
	c1.1,1.7,2.4,1.8,3.8,0.3C124.9,114.2,125,114,125.3,114z"/>
<path class="st1" d="M128.4,113.9c-1.5,2.4-3.3,2.4-4.9,0c-2.3-3.5-5.4-6.3-8.8-8.6c-7.2-5-15.3-7.9-23.9-9.8C83,93.7,75,93,67,92.7
	c-0.8,0-1,0.2-1,1c0,6,0,12,0,18c0,0.3,0,0.5,0,0.8c0,1.2-0.2,2.3-1.4,2.9c-1.2,0.6-2.1,0.1-3.1-0.6c-4.3-3.4-8.7-6.7-13.1-10
	C36.4,95.5,24.4,86.3,12.3,77c-0.2-0.2-0.5-0.4-0.7-0.6c-1.7-1.4-1.8-3,0-4.4c5.9-4.5,11.8-9.1,17.7-13.6C40,50.3,50.6,42.1,61.3,34
	c0.3-0.2,0.6-0.5,0.9-0.7c1.6-1,3.5-0.2,3.8,1.7c0.1,0.4,0.1,0.8,0.1,1.3c0,6.5,0,12.9,0,19.4c0,1.2,0.3,1.3,1.4,1.3
	c10.9-0.5,21.5,1,31.6,5.3c13.3,5.7,22,15.6,26.3,29.3c1.5,4.9,2.4,9.9,2.8,15c0,0.3-0.2,0.7,0.2,0.9c0,0.3,0,0.6,0,0.9
	c-0.2,0.2-0.1,0.5-0.1,0.7c0,0.2,0,0.4,0,0.6c0,0.2,0,0.3,0,0.5c0,0.2-0.1,0.5,0.1,0.7C128.4,111.9,128.4,112.9,128.4,113.9z"/>
<path class="st3" d="M125.1,109.4c0-0.2-0.2-0.5,0.2-0.6c0,0.2,0,0.4,0,0.7C125.2,109.5,125.1,109.5,125.1,109.4z"/>
<path class="st4" d="M125.1,109.4c0.1,0,0.1,0,0.2,0c0,0.2,0,0.4,0,0.7c-0.1,0.1-0.1,0.1-0.2,0C125.1,109.9,125.1,109.7,125.1,109.4
	z"/>
<path class="st5" d="M125.3,111.2c-0.3-0.2-0.2-0.4-0.2-0.7c0.1-0.1,0.1-0.1,0.2,0C125.3,110.8,125.3,111,125.3,111.2z"/>
<path class="st6" d="M125.3,110.5c-0.1,0-0.1,0-0.2,0c0-0.1,0-0.3,0-0.4c0.1,0,0.1,0,0.2,0C125.3,110.2,125.3,110.4,125.3,110.5z"/>
</svg>
