<svg width="59" height="58" viewBox="0 0 59 58" fill="none" xmlns="http://www.w3.org/2000/svg">
<path d="M31.7893 4.83301C34.508 4.84026 35.8879 4.85476 37.0794 4.88859L37.5482 4.90551C38.0895 4.92484 38.6236 4.94901 39.2689 4.97801C41.8402 5.09884 43.5947 5.50484 45.1341 6.10176C46.7291 6.71559 48.0728 7.54692 49.4164 8.88817C50.6458 10.0959 51.5967 11.5573 52.2029 13.1705C52.7998 14.7099 53.2058 16.4644 53.3266 19.0382C53.3556 19.681 53.3798 20.2151 53.3991 20.7588L53.4136 21.2277C53.4499 22.4167 53.4644 23.7966 53.4692 26.5153L53.4716 28.3182V31.484C53.4775 33.2467 53.459 35.0095 53.416 36.7717L53.4015 37.2405C53.3822 37.7843 53.358 38.3183 53.329 38.9612C53.2082 41.5349 52.7974 43.287 52.2029 44.8288C51.5967 46.442 50.6458 47.9035 49.4164 49.1112C48.2088 50.3405 46.7473 51.2915 45.1341 51.8976C43.5947 52.4945 41.8402 52.9005 39.2689 53.0213L37.5482 53.0938L37.0794 53.1083C35.8879 53.1422 34.508 53.1591 31.7893 53.1639L29.9864 53.1663H26.823C25.0595 53.1726 23.296 53.154 21.5329 53.1108L21.0641 53.0963C20.4904 53.0745 19.9169 53.0496 19.3434 53.0213C16.7721 52.9005 15.0176 52.4945 13.4758 51.8976C11.8634 51.2911 10.4028 50.3402 9.19586 49.1112C7.96564 47.9037 7.01387 46.4422 6.40703 44.8288C5.81011 43.2894 5.40411 41.5349 5.28328 38.9612L5.21078 37.2405L5.19869 36.7717C5.15414 35.0095 5.134 33.2468 5.13828 31.484V26.5153C5.13159 24.7526 5.14931 22.9899 5.19144 21.2277L5.20836 20.7588C5.22769 20.2151 5.25186 19.681 5.28086 19.0382C5.40169 16.4644 5.80769 14.7123 6.40461 13.1705C7.01287 11.5567 7.96632 10.0951 9.19828 8.88817C10.4046 7.65942 11.8643 6.70852 13.4758 6.10176C15.0176 5.50484 16.7697 5.09884 19.3434 4.97801C19.9863 4.94901 20.5228 4.92484 21.0641 4.90551L21.5329 4.89101C23.2952 4.84807 25.0579 4.82954 26.8206 4.83542L31.7893 4.83301ZM29.3049 16.9163C26.1002 16.9163 23.0268 18.1894 20.7607 20.4555C18.4947 22.7215 17.2216 25.795 17.2216 28.9997C17.2216 32.2044 18.4947 35.2778 20.7607 37.5439C23.0268 39.8099 26.1002 41.083 29.3049 41.083C32.5096 41.083 35.5831 39.8099 37.8492 37.5439C40.1152 35.2778 41.3883 32.2044 41.3883 28.9997C41.3883 25.795 40.1152 22.7215 37.8492 20.4555C35.5831 18.1894 32.5096 16.9163 29.3049 16.9163ZM29.3049 21.7497C30.257 21.7495 31.1998 21.9369 32.0795 22.3011C32.9592 22.6653 33.7585 23.1992 34.4318 23.8723C35.1052 24.5454 35.6393 25.3446 36.0038 26.2241C36.3683 27.1037 36.556 28.0464 36.5562 28.9985C36.5563 29.9505 36.3689 30.8933 36.0047 31.773C35.6405 32.6527 35.1066 33.452 34.4335 34.1253C33.7604 34.7987 32.9613 35.3328 32.0817 35.6973C31.2022 36.0618 30.2594 36.2495 29.3074 36.2497C27.3845 36.2497 25.5405 35.4858 24.1808 34.1262C22.8212 32.7666 22.0574 30.9225 22.0574 28.9997C22.0574 27.0769 22.8212 25.2328 24.1808 23.8731C25.5405 22.5135 27.3845 21.7497 29.3074 21.7497M41.9949 13.2913C41.1937 13.2913 40.4253 13.6096 39.8588 14.1761C39.2923 14.7426 38.974 15.511 38.974 16.3122C38.974 17.1133 39.2923 17.8817 39.8588 18.4482C40.4253 19.0147 41.1937 19.333 41.9949 19.333C42.796 19.333 43.5644 19.0147 44.1309 18.4482C44.6974 17.8817 45.0157 17.1133 45.0157 16.3122C45.0157 15.511 44.6974 14.7426 44.1309 14.1761C43.5644 13.6096 42.796 13.2913 41.9949 13.2913Z" fill="white"/>
</svg>
