<svg width="49" height="48" viewBox="0 0 49 48" fill="none" xmlns="http://www.w3.org/2000/svg">
<path d="M42.8188 0C44.2333 0 45.5898 0.561903 46.59 1.5621C47.5902 2.56229 48.1521 3.91885 48.1521 5.33333V42.6667C48.1521 44.0812 47.5902 45.4377 46.59 46.4379C45.5898 47.4381 44.2333 48 42.8188 48H5.48543C4.07095 48 2.71439 47.4381 1.7142 46.4379C0.714003 45.4377 0.1521 44.0812 0.1521 42.6667V5.33333C0.1521 3.91885 0.714003 2.56229 1.7142 1.5621C2.71439 0.561903 4.07095 0 5.48543 0H42.8188ZM41.4854 41.3333V27.2C41.4854 24.8944 40.5695 22.6832 38.9392 21.0529C37.3089 19.4226 35.0977 18.5067 32.7921 18.5067C30.5254 18.5067 27.8854 19.8933 26.6054 21.9733V19.0133H19.1654V41.3333H26.6054V28.1867C26.6054 26.1333 28.2588 24.4533 30.3121 24.4533C31.3022 24.4533 32.2518 24.8467 32.952 25.5468C33.6521 26.2469 34.0454 27.1965 34.0454 28.1867V41.3333H41.4854ZM10.4988 14.8267C11.6869 14.8267 12.8264 14.3547 13.6666 13.5145C14.5068 12.6743 14.9788 11.5348 14.9788 10.3467C14.9788 7.86667 12.9788 5.84 10.4988 5.84C9.30352 5.84 8.15724 6.31481 7.31207 7.15997C6.46691 8.00514 5.9921 9.15143 5.9921 10.3467C5.9921 12.8267 8.01877 14.8267 10.4988 14.8267ZM14.2054 41.3333V19.0133H6.81877V41.3333H14.2054Z" fill="white"/>
</svg>
